<mxfile host="app.diagrams.net" modified="2023-08-05T08:24:05.406Z" agent="Mozilla/5.0 (Windows NT 10.0; Win64; x64) AppleWebKit/537.36 (KHTML, like Gecko) Chrome/115.0.0.0 Safari/537.36 Edg/115.0.1901.188" etag="hw2A-BMcMnAoIT4Afk07" version="21.6.3" type="device">
  <diagram name="第 1 页" id="j4l23zv6h5_o0Sej_SfZ">
    <mxGraphModel dx="1235" dy="691" grid="1" gridSize="10" guides="1" tooltips="1" connect="1" arrows="1" fold="1" page="1" pageScale="1" pageWidth="827" pageHeight="1169" math="0" shadow="0">
      <root>
        <mxCell id="0" />
        <mxCell id="1" parent="0" />
        <mxCell id="k7tkvp0TTHMxNUyYGFz2-4" value="" style="edgeStyle=orthogonalEdgeStyle;rounded=0;orthogonalLoop=1;jettySize=auto;html=1;" edge="1" parent="1" source="k7tkvp0TTHMxNUyYGFz2-2" target="k7tkvp0TTHMxNUyYGFz2-3">
          <mxGeometry relative="1" as="geometry" />
        </mxCell>
        <mxCell id="k7tkvp0TTHMxNUyYGFz2-6" style="edgeStyle=orthogonalEdgeStyle;rounded=0;orthogonalLoop=1;jettySize=auto;html=1;entryX=0;entryY=0.5;entryDx=0;entryDy=0;" edge="1" parent="1" source="k7tkvp0TTHMxNUyYGFz2-2" target="k7tkvp0TTHMxNUyYGFz2-5">
          <mxGeometry relative="1" as="geometry">
            <Array as="points">
              <mxPoint x="130" y="190" />
            </Array>
          </mxGeometry>
        </mxCell>
        <mxCell id="k7tkvp0TTHMxNUyYGFz2-12" style="edgeStyle=orthogonalEdgeStyle;rounded=0;orthogonalLoop=1;jettySize=auto;html=1;entryX=0;entryY=0.5;entryDx=0;entryDy=0;" edge="1" parent="1" source="k7tkvp0TTHMxNUyYGFz2-2" target="k7tkvp0TTHMxNUyYGFz2-7">
          <mxGeometry relative="1" as="geometry">
            <mxPoint x="140" y="410" as="targetPoint" />
            <Array as="points">
              <mxPoint x="130" y="360" />
            </Array>
          </mxGeometry>
        </mxCell>
        <mxCell id="k7tkvp0TTHMxNUyYGFz2-2" value="电源模块" style="rounded=1;whiteSpace=wrap;html=1;" vertex="1" parent="1">
          <mxGeometry x="70" y="240" width="120" height="60" as="geometry" />
        </mxCell>
        <mxCell id="k7tkvp0TTHMxNUyYGFz2-9" value="" style="edgeStyle=orthogonalEdgeStyle;rounded=0;orthogonalLoop=1;jettySize=auto;html=1;" edge="1" parent="1" source="k7tkvp0TTHMxNUyYGFz2-3" target="k7tkvp0TTHMxNUyYGFz2-7">
          <mxGeometry relative="1" as="geometry" />
        </mxCell>
        <mxCell id="k7tkvp0TTHMxNUyYGFz2-11" value="" style="edgeStyle=orthogonalEdgeStyle;rounded=0;orthogonalLoop=1;jettySize=auto;html=1;" edge="1" parent="1" source="k7tkvp0TTHMxNUyYGFz2-3" target="k7tkvp0TTHMxNUyYGFz2-5">
          <mxGeometry relative="1" as="geometry" />
        </mxCell>
        <mxCell id="k7tkvp0TTHMxNUyYGFz2-17" value="" style="edgeStyle=orthogonalEdgeStyle;rounded=0;orthogonalLoop=1;jettySize=auto;html=1;" edge="1" parent="1" source="k7tkvp0TTHMxNUyYGFz2-3" target="k7tkvp0TTHMxNUyYGFz2-15">
          <mxGeometry relative="1" as="geometry" />
        </mxCell>
        <mxCell id="k7tkvp0TTHMxNUyYGFz2-18" style="edgeStyle=orthogonalEdgeStyle;rounded=0;orthogonalLoop=1;jettySize=auto;html=1;entryX=0;entryY=0.5;entryDx=0;entryDy=0;" edge="1" parent="1" source="k7tkvp0TTHMxNUyYGFz2-3" target="k7tkvp0TTHMxNUyYGFz2-13">
          <mxGeometry relative="1" as="geometry" />
        </mxCell>
        <mxCell id="k7tkvp0TTHMxNUyYGFz2-19" style="edgeStyle=orthogonalEdgeStyle;rounded=0;orthogonalLoop=1;jettySize=auto;html=1;entryX=0;entryY=0.5;entryDx=0;entryDy=0;" edge="1" parent="1" source="k7tkvp0TTHMxNUyYGFz2-3" target="k7tkvp0TTHMxNUyYGFz2-16">
          <mxGeometry relative="1" as="geometry" />
        </mxCell>
        <mxCell id="k7tkvp0TTHMxNUyYGFz2-3" value="STM32C8T6" style="rounded=1;whiteSpace=wrap;html=1;" vertex="1" parent="1">
          <mxGeometry x="230" y="240" width="120" height="60" as="geometry" />
        </mxCell>
        <mxCell id="k7tkvp0TTHMxNUyYGFz2-5" value="K210视觉模块" style="rounded=1;whiteSpace=wrap;html=1;" vertex="1" parent="1">
          <mxGeometry x="230" y="160" width="120" height="60" as="geometry" />
        </mxCell>
        <mxCell id="k7tkvp0TTHMxNUyYGFz2-7" value="舵机云台" style="rounded=1;whiteSpace=wrap;html=1;" vertex="1" parent="1">
          <mxGeometry x="230" y="330" width="120" height="60" as="geometry" />
        </mxCell>
        <mxCell id="k7tkvp0TTHMxNUyYGFz2-13" value="激光笔" style="whiteSpace=wrap;html=1;rounded=1;" vertex="1" parent="1">
          <mxGeometry x="400" y="160" width="120" height="60" as="geometry" />
        </mxCell>
        <mxCell id="k7tkvp0TTHMxNUyYGFz2-15" value="OLED，蜂鸣器" style="whiteSpace=wrap;html=1;rounded=1;" vertex="1" parent="1">
          <mxGeometry x="400" y="240" width="120" height="60" as="geometry" />
        </mxCell>
        <mxCell id="k7tkvp0TTHMxNUyYGFz2-16" value="按键模块" style="whiteSpace=wrap;html=1;rounded=1;" vertex="1" parent="1">
          <mxGeometry x="400" y="330" width="120" height="60" as="geometry" />
        </mxCell>
      </root>
    </mxGraphModel>
  </diagram>
</mxfile>
